<svg width="41" height="41" viewBox="0 0 41 41" fill="none" xmlns="http://www.w3.org/2000/svg">
<path d="M20.0032 1.02886e-06C16.047 1.02886e-06 12.1795 1.17317 8.89003 3.37115C5.60052 5.56913 3.03666 8.69321 1.52266 12.3483C0.00866717 16.0034 -0.387463 20.0254 0.384365 23.9056C1.15619 27.7859 3.06131 31.3501 5.85881 34.1476C8.65631 36.9451 12.2205 38.8502 16.1008 39.6221C19.981 40.3939 24.003 39.9978 27.6581 38.4838C31.3132 36.9698 34.4373 34.4059 36.6353 31.1164C38.8333 27.8269 40.0064 23.9595 40.0064 20.0032C40.0073 17.3761 39.4904 14.7746 38.4855 12.3473C37.4805 9.92004 36.0071 7.71456 34.1495 5.85693C32.2919 3.99929 30.0864 2.5259 27.6591 1.52094C25.2318 0.515982 22.6303 -0.000841664 20.0032 1.02886e-06V1.02886e-06ZM29.1999 26.4422C28.8151 27.5389 26.8976 28.5843 26.0382 28.6612C25.1788 28.7382 25.1788 29.3603 20.4008 27.5004C15.6229 25.6405 12.615 20.7664 12.3842 20.4457C11.6464 19.4808 11.0802 18.396 10.7103 17.2391C10.5552 16.7229 10.4732 16.1875 10.4666 15.6486C10.4532 14.9219 10.5924 14.2006 10.8752 13.5311C11.158 12.8617 11.5781 12.259 12.1084 11.7621C12.2657 11.5843 12.4579 11.4407 12.673 11.3403C12.8882 11.2399 13.1217 11.1848 13.359 11.1785C13.6732 11.1785 14.0003 11.2233 14.2569 11.2233C14.5134 11.2233 14.9303 11.063 15.3151 11.9929C15.6999 12.9229 16.649 15.1996 16.7645 15.4562C16.8407 15.577 16.8843 15.7156 16.891 15.8583C16.8978 16.0011 16.8674 16.1431 16.803 16.2706C16.7168 16.4607 16.6182 16.645 16.5079 16.8222C16.4543 16.9001 16.3965 16.975 16.3348 17.0467C16.0975 17.316 15.8474 17.6495 15.6293 17.8676C15.4113 18.0856 15.1547 18.3486 15.4241 18.8167C16.1312 20.0086 17.0108 21.0891 18.0343 22.0234C19.1448 23.023 20.4237 23.8178 21.8118 24.3707C22.2864 24.6016 22.5557 24.5695 22.8379 24.2553C23.1201 23.941 24.0116 22.902 24.3258 22.4339C24.6401 21.9657 24.9671 22.0427 25.384 22.203C25.8009 22.3633 28.1161 23.4857 28.5907 23.7165C29.0653 23.9474 29.3667 24.0693 29.4885 24.2553C29.6078 24.9968 29.5075 25.757 29.1999 26.4422V26.4422Z" fill="#0D2F4C"/>
</svg>
