<svg width="23" height="23" viewBox="0 0 23 23" fill="none" xmlns="http://www.w3.org/2000/svg">
<path d="M11.5 5.91311e-07C9.22536 7.08221e-07 7.00181 0.674557 5.11056 1.93836C3.21932 3.20216 1.74534 4.99843 0.875037 7.09999C0.00473835 9.20156 -0.222785 11.514 0.221244 13.7449C0.665273 15.9758 1.76091 18.0249 3.36958 19.633C4.97825 21.2412 7.0277 22.3362 9.25872 22.7795C11.4897 23.2228 13.8021 22.9945 15.9034 22.1236C18.0047 21.2526 19.8005 19.778 21.0637 17.8864C22.3269 15.9947 23.0007 13.771 23 11.4963C23 9.98628 22.7025 8.49105 22.1245 7.09601C21.5466 5.70097 20.6994 4.43347 19.6315 3.36589C18.5636 2.29831 17.2958 1.45157 15.9006 0.874047C14.5054 0.29652 13.01 -0.000483702 11.5 5.91311e-07V5.91311e-07ZM12.7315 9.28038C13.2329 9.28038 13.7381 9.28038 14.2432 9.28038C14.4165 9.28038 14.4828 9.31725 14.457 9.51635C14.3833 10.1137 14.3206 10.711 14.269 11.312C14.269 11.4816 14.1879 11.5295 14.0257 11.5258C13.6127 11.5258 13.1997 11.5258 12.7905 11.5258C12.5729 11.5258 12.4992 11.5811 12.5029 11.806C12.5029 12.7831 12.5029 13.7602 12.5029 14.7557C12.5029 15.7512 12.5029 16.7062 12.5029 17.6832C12.5029 17.8786 12.4586 17.9487 12.2485 17.945C11.5111 17.945 10.7995 17.945 10.0768 17.945C9.86663 17.945 9.82238 17.875 9.82238 17.6795C9.82238 15.7365 9.82238 13.7897 9.82238 11.8429C9.82238 11.5442 9.82238 11.5442 9.52004 11.5442H8.7052C8.58352 11.5442 8.52822 11.4963 8.52822 11.3673C8.52822 10.7405 8.52822 10.1173 8.52822 9.49054C8.52822 9.35412 8.57984 9.29881 8.71626 9.3025C9.01491 9.3025 9.31356 9.3025 9.60853 9.3025C9.77814 9.3025 9.83344 9.25457 9.83344 9.08127C9.83344 8.52453 9.83344 7.97515 9.87031 7.41103C9.87275 7.07455 9.94781 6.74256 10.0903 6.43776C10.2329 6.13295 10.4396 5.86251 10.6962 5.64492C11.1166 5.31193 11.6349 5.12663 12.1711 5.11767C12.879 5.08079 13.5906 5.09186 14.2985 5.07711C14.4423 5.07711 14.4865 5.13979 14.4828 5.27252C14.4828 5.89564 14.4828 6.52244 14.4828 7.14925C14.4828 7.28567 14.4275 7.33729 14.2911 7.3336C13.9224 7.3336 13.5721 7.3336 13.2145 7.3336C12.7167 7.3336 12.525 7.52901 12.5176 8.02677C12.5176 8.37336 12.5176 8.71625 12.5176 9.05915C12.4992 9.23982 12.5656 9.28406 12.7315 9.28038V9.28038Z" fill="white"/>
</svg>
