<svg width="23" height="23" viewBox="0 0 23 23" fill="none" xmlns="http://www.w3.org/2000/svg">
<path d="M16.6955 7.8166C16.5909 7.52708 16.4205 7.2658 16.1977 7.05338C15.9833 6.83298 15.7226 6.66297 15.4345 6.55562C15.0385 6.41065 14.621 6.33337 14.1993 6.32702C13.4988 6.29753 13.2886 6.29015 11.5151 6.29015C9.74167 6.29015 9.52782 6.29015 8.82728 6.32702C8.40565 6.33337 7.98809 6.41065 7.59212 6.55562C7.30594 6.6668 7.04603 6.83633 6.82894 7.05343C6.61185 7.27052 6.44232 7.53042 6.33114 7.8166C6.18657 8.21269 6.10931 8.63018 6.10254 9.05177C6.07305 9.75232 6.06567 9.96248 6.06567 11.7397C6.06567 13.5168 6.06567 13.7233 6.10254 14.4238C6.10847 14.8455 6.18576 15.2632 6.33114 15.659C6.43849 15.9472 6.6085 16.2078 6.8289 16.4222C7.04132 16.645 7.30259 16.8154 7.59212 16.92C7.98759 17.0668 8.40546 17.1441 8.82728 17.1486C9.52782 17.1818 9.73798 17.1892 11.5151 17.1892C13.2923 17.1892 13.4988 17.1892 14.1993 17.1486C14.6211 17.1441 15.039 17.0668 15.4345 16.92C15.7207 16.8088 15.9806 16.6393 16.1977 16.4222C16.4148 16.2051 16.5843 15.9452 16.6955 15.659C16.8427 15.2637 16.92 14.8457 16.9241 14.4238C16.9572 13.7233 16.9646 13.5131 16.9646 11.7397C16.9646 9.96617 16.9646 9.75232 16.9241 9.05177C16.9191 8.63001 16.8418 8.21222 16.6955 7.8166V7.8166ZM11.5151 15.1539C10.8399 15.1539 10.1798 14.9536 9.61831 14.5785C9.05685 14.2033 8.61924 13.6701 8.36082 13.0462C8.10241 12.4224 8.0348 11.7359 8.16653 11.0736C8.29827 10.4113 8.62344 9.80292 9.10093 9.32543C9.57842 8.84794 10.1868 8.52276 10.8491 8.39102C11.5114 8.25929 12.1978 8.3269 12.8217 8.58531C13.4456 8.84373 13.9788 9.28134 14.354 9.84281C14.7291 10.4043 14.9294 11.0644 14.9294 11.7397C14.9294 12.6452 14.5697 13.5136 13.9294 14.1539C13.2891 14.7942 12.4207 15.1539 11.5151 15.1539V15.1539ZM15.0621 8.98909C14.9037 8.98982 14.7486 8.94352 14.6166 8.85605C14.4845 8.76858 14.3814 8.64388 14.3203 8.49775C14.2592 8.35161 14.2428 8.19063 14.2732 8.03518C14.3037 7.87973 14.3796 7.73683 14.4914 7.62456C14.6031 7.5123 14.7457 7.43573 14.901 7.40456C15.0563 7.37338 15.2173 7.38901 15.3637 7.44946C15.5101 7.50991 15.6353 7.61245 15.7234 7.74411C15.8115 7.87576 15.8585 8.0306 15.8585 8.189C15.8585 8.4012 15.7742 8.6047 15.6242 8.75475C15.4741 8.9048 15.2706 8.98909 15.0584 8.98909" fill="white"/>
<path d="M11.5151 9.52373C11.0776 9.52373 10.6498 9.65347 10.286 9.89656C9.92224 10.1396 9.63869 10.4851 9.47125 10.8894C9.30381 11.2936 9.26001 11.7384 9.34536 12.1676C9.43072 12.5967 9.64142 12.9909 9.95081 13.3003C10.2602 13.6097 10.6544 13.8204 11.0835 13.9057C11.5126 13.9911 11.9574 13.9473 12.3617 13.7798C12.7659 13.6124 13.1114 13.3288 13.3545 12.965C13.5976 12.6012 13.7273 12.1735 13.7273 11.736C13.7273 11.1492 13.4943 10.5866 13.0794 10.1717C12.6645 9.7568 12.1018 9.52373 11.5151 9.52373" fill="white"/>
<path d="M11.5037 5.91151e-07C9.22889 -0.000728628 7.00498 0.673208 5.11325 1.93656C3.22152 3.19992 1.74696 4.99594 0.876096 7.09744C0.00523125 9.19894 -0.222818 11.5115 0.220795 13.7426C0.664407 15.9738 1.75975 18.0232 3.36828 19.6317C4.9768 21.2402 7.02624 22.3356 9.25737 22.7792C11.4885 23.2228 13.8011 22.9948 15.9026 22.1239C18.0041 21.253 19.8001 19.7785 21.0634 17.8868C22.3268 15.995 23.0007 13.7711 23 11.4963C23 8.4473 21.7888 5.52317 19.6328 3.36719C17.4768 1.21122 14.5527 5.91151e-07 11.5037 5.91151e-07V5.91151e-07ZM18.1404 14.4792C18.1294 15.0311 18.0247 15.5772 17.8307 16.0941C17.6563 16.538 17.3905 16.9404 17.0507 17.2751C16.7109 17.6098 16.3046 17.8694 15.8581 18.0372C15.3412 18.2311 14.7952 18.3359 14.2432 18.3469C13.5353 18.3801 13.3067 18.3875 11.5037 18.3875C9.70071 18.3875 9.47211 18.3875 8.7605 18.3469C8.20969 18.3363 7.66474 18.2316 7.14925 18.0372C6.70518 17.8698 6.30266 17.6081 5.96938 17.2703C5.63278 16.9374 5.37129 16.5364 5.20247 16.0941C5.00992 15.577 4.90644 15.0309 4.89644 14.4792C4.86326 13.7712 4.85589 13.5426 4.85589 11.7397C4.85589 9.93668 4.85589 9.70808 4.89644 8.99647C4.90908 8.4416 5.01631 7.89295 5.21353 7.37416C5.38392 6.93161 5.64521 6.5297 5.98053 6.19438C6.31586 5.85906 6.71776 5.59777 7.16031 5.42738C7.67606 5.23441 8.22098 5.13091 8.77156 5.12135C9.48317 5.08817 9.70808 5.08079 11.5147 5.08079C13.3214 5.08079 13.5463 5.08079 14.2543 5.12135C14.806 5.13135 15.352 5.23483 15.8692 5.42738C16.3115 5.59619 16.7125 5.85768 17.0454 6.19429C17.3832 6.52757 17.6449 6.93009 17.8123 7.37416C18.006 7.88984 18.1107 8.43467 18.122 8.98541C18.1552 9.69702 18.1626 9.92193 18.1626 11.7286C18.1626 13.5353 18.1626 13.7602 18.122 14.4681" fill="white"/>
</svg>
