<svg width="390" height="93" viewBox="0 0 390 93" fill="none" xmlns="http://www.w3.org/2000/svg">
<path d="M192.68 32.0001C192.34 31.6006 192.148 31.0966 192.135 30.5724C192.123 30.0483 192.29 29.5356 192.61 29.1201C192.61 29.0701 192.74 28.9601 192.89 28.8001H192.78C190.405 28.8459 188.108 27.9509 186.39 26.3101H181.45V27.3101C182.15 27.3577 182.826 27.5889 183.409 27.9803C183.991 28.3718 184.461 28.9097 184.77 29.5401C185.397 31.42 185.665 33.4011 185.56 35.3801V56.3801C185.578 57.9554 185.296 59.5198 184.73 60.9901C184.075 62.4917 182.914 63.7161 181.45 64.4501V65.4501H207V64.4501C205.542 63.726 204.382 62.5167 203.72 61.0301C203.148 59.5476 202.866 57.9689 202.89 56.3801V34.7301C201.851 35.0015 200.783 35.1426 199.71 35.1501C198.378 35.178 197.057 34.91 195.841 34.3652C194.625 33.8205 193.546 33.0127 192.68 32.0001V32.0001Z" fill="white"/>
<path opacity="0.31" d="M189.78 45.24C189.78 54.14 189.02 61.35 189.02 61.35C189.02 61.35 188.26 54.14 188.26 45.24C188.26 36.34 189.02 29.14 189.02 29.14C189.02 29.14 189.78 36.35 189.78 45.24Z" fill="white"/>
<path d="M190.3 12.88L190.25 12.94L190.37 12.99C190.37 12.99 190.37 12.91 190.32 12.87L190.3 12.88Z" fill="white"/>
<path d="M103 16.4H106C106.502 16.3944 106.997 16.5147 107.44 16.75C107.865 16.9768 108.213 17.3249 108.44 17.75C108.681 18.1947 108.801 18.6944 108.79 19.2C108.805 19.7055 108.695 20.207 108.47 20.66C108.249 21.0892 107.899 21.4388 107.47 21.66C107.055 21.9051 106.582 22.033 106.1 22.03H103V21.68H103.47C103.565 21.6856 103.659 21.6532 103.73 21.59C103.785 21.5146 103.813 21.4231 103.81 21.33V17.08C103.814 17.0343 103.808 16.9883 103.792 16.9452C103.777 16.9021 103.752 16.8628 103.72 16.83C103.632 16.7701 103.526 16.7419 103.42 16.75H103V16.4ZM105.76 21.65C106.085 21.6531 106.405 21.5629 106.68 21.39C106.941 21.2155 107.14 20.9637 107.25 20.67C107.393 20.2177 107.453 19.7436 107.43 19.27C107.453 18.7515 107.382 18.2332 107.22 17.74C107.118 17.4312 106.918 17.1643 106.65 16.98C106.342 16.8176 105.998 16.7384 105.65 16.75C105.487 16.7359 105.322 16.7598 105.17 16.82C105.134 16.8454 105.105 16.8803 105.088 16.9209C105.07 16.9615 105.064 17.0061 105.07 17.05V21.29C105.063 21.3898 105.092 21.4888 105.15 21.57C105.184 21.5992 105.224 21.6213 105.267 21.6351C105.31 21.6488 105.355 21.6539 105.4 21.65H105.76Z" fill="white"/>
<path d="M114.14 16.4H117V16.75H116.49C116.401 16.7441 116.313 16.7688 116.24 16.82C116.214 16.8458 116.194 16.8772 116.182 16.9119C116.169 16.9466 116.165 16.9836 116.17 17.02V21.35C116.165 21.3904 116.17 21.4313 116.184 21.4695C116.198 21.5077 116.22 21.5422 116.25 21.57C116.335 21.6271 116.437 21.6551 116.54 21.65H117V22H114.13V21.65H114.57C114.683 21.6611 114.796 21.6329 114.89 21.57C114.924 21.5448 114.951 21.5114 114.968 21.4729C114.986 21.4344 114.993 21.3922 114.99 21.35V17.06C114.993 17.0174 114.986 16.9747 114.971 16.935C114.955 16.8952 114.931 16.8594 114.9 16.83C114.823 16.7715 114.727 16.7431 114.63 16.75H114.13L114.14 16.4Z" fill="white"/>
<path d="M125.79 16.83L126.14 16.33H126.41V18.27H126.07C125.946 17.7894 125.686 17.3552 125.32 17.02C125.023 16.7552 124.638 16.6093 124.24 16.61C123.943 16.5961 123.651 16.6922 123.42 16.88C123.322 16.9591 123.242 17.0597 123.189 17.1741C123.135 17.2885 123.108 17.4136 123.11 17.54C123.108 17.6856 123.15 17.8283 123.23 17.95C123.332 18.0932 123.47 18.2071 123.63 18.28C123.952 18.4085 124.287 18.4991 124.63 18.55C125.011 18.6233 125.386 18.727 125.75 18.86C126.046 18.9799 126.303 19.1809 126.49 19.44C126.694 19.7725 126.776 20.1653 126.723 20.5517C126.67 20.9381 126.486 21.2943 126.2 21.56C125.756 21.9333 125.19 22.1292 124.61 22.11C124.022 22.1085 123.454 21.8955 123.01 21.51L122.57 22.06H122.29V20H122.62C122.95 21.19 123.62 21.78 124.62 21.78C124.977 21.8076 125.333 21.7046 125.62 21.49C125.729 21.4067 125.816 21.299 125.875 21.1756C125.934 21.0523 125.963 20.9167 125.96 20.78C125.967 20.6012 125.915 20.4252 125.81 20.28C125.689 20.1264 125.526 20.0117 125.34 19.95C125.058 19.8617 124.771 19.7916 124.48 19.74C124.023 19.6569 123.579 19.5122 123.16 19.31C122.919 19.1937 122.717 19.0095 122.58 18.78C122.446 18.5462 122.38 18.2794 122.39 18.01C122.383 17.7775 122.424 17.5461 122.512 17.3308C122.6 17.1155 122.732 16.921 122.9 16.76C123.283 16.4317 123.776 16.2602 124.28 16.28C124.833 16.2793 125.367 16.4741 125.79 16.83V16.83Z" fill="white"/>
<path d="M132.16 16.4H137.05L137.18 18.53H136.83C136.778 18.1637 136.673 17.8067 136.52 17.47C136.422 17.2526 136.271 17.0635 136.08 16.92C135.918 16.819 135.731 16.7637 135.54 16.76C135.451 16.7541 135.363 16.7788 135.29 16.83C135.262 16.8548 135.24 16.8858 135.226 16.9205C135.212 16.9553 135.207 16.9928 135.21 17.03V21.37C135.208 21.4064 135.213 21.4428 135.225 21.4772C135.237 21.5115 135.255 21.5431 135.28 21.57C135.331 21.6191 135.399 21.6475 135.47 21.65H136.11V22H133.11V21.65H133.72C133.759 21.6513 133.797 21.6449 133.833 21.6312C133.869 21.6175 133.902 21.5967 133.93 21.57C133.958 21.5452 133.98 21.5142 133.994 21.4795C134.008 21.4448 134.013 21.4073 134.01 21.37V17.06C134.015 17.0181 134.01 16.9757 133.996 16.9359C133.982 16.896 133.96 16.8599 133.93 16.83C133.856 16.7802 133.769 16.7557 133.68 16.76C133.03 16.76 132.6 17.35 132.37 18.53H132L132.16 16.4Z" fill="white"/>
<path d="M142.48 16.4H145.41C145.805 16.3862 146.2 16.4508 146.57 16.59C146.839 16.6846 147.073 16.859 147.24 17.09C147.379 17.2967 147.453 17.5408 147.45 17.79C147.451 17.9898 147.401 18.1866 147.305 18.3616C147.209 18.5367 147.069 18.6842 146.9 18.79C146.507 19.018 146.064 19.1451 145.61 19.16C145.846 19.1913 146.074 19.2695 146.28 19.39C146.454 19.5125 146.598 19.6733 146.7 19.86C146.876 20.1735 147.007 20.5101 147.09 20.86C147.117 21.0226 147.175 21.1786 147.26 21.32C147.276 21.3492 147.299 21.3737 147.327 21.3913C147.355 21.4088 147.387 21.4187 147.42 21.42C147.593 21.42 147.693 21.2 147.72 20.76H148.05C148.059 21.1184 147.95 21.4698 147.74 21.76C147.557 21.9232 147.328 22.0254 147.084 22.0523C146.84 22.0791 146.594 22.0294 146.38 21.91C146.233 21.7998 146.118 21.651 146.05 21.48C145.97 21.2311 145.907 20.9772 145.86 20.72C145.807 20.3961 145.724 20.0779 145.61 19.77C145.547 19.6266 145.447 19.5024 145.32 19.41C145.189 19.3271 145.035 19.2853 144.88 19.29H144.47V21.36C144.465 21.3974 144.47 21.4355 144.484 21.4705C144.498 21.5055 144.521 21.5363 144.55 21.56C144.584 21.5936 144.625 21.6198 144.67 21.637C144.714 21.6542 144.762 21.662 144.81 21.66H145.32V22H142.48V21.65H142.92C142.967 21.654 143.015 21.648 143.059 21.6325C143.104 21.617 143.145 21.5923 143.18 21.56C143.211 21.5269 143.236 21.4875 143.251 21.4445C143.267 21.4014 143.273 21.3556 143.27 21.31V17.09C143.274 17.0451 143.269 16.9999 143.255 16.957C143.241 16.9141 143.219 16.8743 143.19 16.84C143.161 16.809 143.125 16.7849 143.085 16.7693C143.045 16.7537 143.003 16.7472 142.96 16.75H142.48V16.4ZM144.48 18.94H144.95C145.312 18.9661 145.67 18.8514 145.95 18.62C146.057 18.512 146.137 18.3811 146.186 18.2373C146.234 18.0935 146.249 17.9405 146.23 17.79C146.243 17.6483 146.226 17.5054 146.179 17.3709C146.133 17.2363 146.058 17.1133 145.96 17.01C145.691 16.8152 145.36 16.7262 145.03 16.76C144.79 16.76 144.64 16.76 144.58 16.84C144.52 16.92 144.49 17 144.49 17.18L144.48 18.94Z" fill="white"/>
<path d="M153.28 16.4H156.15V16.75H155.63C155.544 16.7456 155.46 16.7703 155.39 16.82C155.363 16.8453 155.341 16.8764 155.327 16.911C155.314 16.9456 155.308 16.9828 155.31 17.02V21.35C155.307 21.3902 155.313 21.4306 155.327 21.4685C155.341 21.5063 155.362 21.5409 155.39 21.57C155.479 21.6272 155.584 21.6552 155.69 21.65H156.15V22H153.28V21.65H153.72C153.833 21.6595 153.945 21.6314 154.04 21.57C154.071 21.5427 154.095 21.5086 154.111 21.4705C154.126 21.4323 154.133 21.3911 154.13 21.35V17.06C154.135 16.9758 154.106 16.8932 154.05 16.83C153.972 16.7723 153.877 16.744 153.78 16.75H153.28V16.4Z" fill="white"/>
<path d="M161.41 16.4H164.81C165.255 16.3747 165.695 16.5095 166.05 16.78C166.194 16.8881 166.311 17.0286 166.391 17.1902C166.471 17.3517 166.511 17.5298 166.51 17.71C166.512 17.8674 166.482 18.0236 166.419 18.1684C166.357 18.3131 166.266 18.4431 166.15 18.55C165.834 18.8107 165.46 18.9924 165.06 19.08C165.553 19.1224 166.024 19.3026 166.42 19.6C166.551 19.7145 166.655 19.856 166.726 20.0149C166.797 20.1737 166.832 20.3461 166.83 20.52C166.837 20.8256 166.734 21.1236 166.54 21.36C166.345 21.5681 166.101 21.723 165.83 21.81C165.442 21.9465 165.031 22.0109 164.62 22H161.41V21.65H161.93C161.967 21.6517 162.004 21.6455 162.039 21.6317C162.073 21.6179 162.104 21.5968 162.13 21.57C162.191 21.4971 162.222 21.4047 162.22 21.31V17C162.218 16.9693 162.21 16.9394 162.196 16.9119C162.182 16.8844 162.163 16.86 162.14 16.84C162.051 16.7938 161.95 16.7731 161.85 16.78H161.41V16.4ZM163.41 18.93H164.04C164.373 18.9642 164.707 18.8673 164.97 18.66C165.075 18.5366 165.154 18.3933 165.202 18.2386C165.25 18.084 165.266 17.9211 165.25 17.76C165.263 17.6229 165.247 17.4847 165.204 17.3539C165.161 17.2231 165.092 17.1026 165 17C164.699 16.8203 164.349 16.7398 164 16.77C163.847 16.7552 163.693 16.7758 163.55 16.83C163.514 16.8577 163.485 16.8945 163.468 16.9366C163.45 16.9787 163.444 17.0247 163.45 17.07L163.41 18.93ZM163.41 19.29V21.29C163.402 21.379 163.427 21.4678 163.48 21.54C163.502 21.5658 163.53 21.5864 163.561 21.6002C163.592 21.6141 163.626 21.6208 163.66 21.62H164.39C164.697 21.6376 164.999 21.5334 165.23 21.33C165.336 21.2146 165.417 21.0788 165.469 20.931C165.52 20.7831 165.541 20.6262 165.53 20.47C165.542 20.306 165.52 20.1412 165.465 19.9862C165.41 19.8312 165.323 19.6894 165.21 19.57C164.947 19.3452 164.605 19.2337 164.26 19.26L163.41 19.29Z" fill="white"/>
<path d="M172 16.4H174.82V16.75H174.24C174.203 16.7488 174.167 16.7564 174.134 16.772C174.101 16.7877 174.072 16.811 174.05 16.84C174.004 16.9111 173.983 16.9956 173.99 17.08V20.18C173.975 20.3619 173.999 20.5448 174.059 20.717C174.12 20.8892 174.215 21.0469 174.34 21.18C174.471 21.3087 174.628 21.4075 174.801 21.4697C174.973 21.5318 175.157 21.5558 175.34 21.54C175.623 21.5425 175.901 21.4737 176.15 21.34C176.345 21.2333 176.502 21.0692 176.6 20.87C176.72 20.6101 176.778 20.3261 176.77 20.04V17.66C176.786 17.4153 176.711 17.1733 176.56 16.98C176.493 16.9038 176.41 16.8436 176.316 16.8038C176.223 16.764 176.121 16.7456 176.02 16.75H175.94V16.4H178V16.75H177.86C177.76 16.7445 177.66 16.7657 177.57 16.8114C177.48 16.857 177.405 16.9256 177.35 17.01C177.223 17.1911 177.16 17.4091 177.17 17.63V20.21C177.18 20.4675 177.134 20.7241 177.036 20.9623C176.937 21.2005 176.789 21.4146 176.6 21.59C176.155 21.9577 175.587 22.1434 175.01 22.11C174.579 22.1225 174.149 22.0441 173.75 21.88C173.439 21.7607 173.174 21.5474 172.99 21.27C172.824 20.9639 172.744 20.6181 172.76 20.27V17.14C172.76 16.99 172.76 16.89 172.68 16.84C172.639 16.8046 172.591 16.7782 172.54 16.7627C172.488 16.7472 172.434 16.7428 172.38 16.75H172V16.4Z" fill="white"/>
<path d="M219.08 16.83L219.34 16.27H219.62L219.71 18.51H219.37C219.31 17.9825 219.094 17.4848 218.75 17.08C218.626 16.9361 218.472 16.8199 218.3 16.7389C218.128 16.6579 217.94 16.614 217.75 16.61C217.539 16.613 217.331 16.6697 217.148 16.7746C216.964 16.8795 216.81 17.0294 216.7 17.21C216.377 17.7922 216.231 18.4561 216.28 19.12C216.232 19.8335 216.392 20.5455 216.74 21.17C216.861 21.3421 217.023 21.4809 217.212 21.5735C217.401 21.6662 217.61 21.7097 217.82 21.7C218.048 21.7029 218.274 21.6571 218.482 21.5657C218.691 21.4743 218.878 21.3394 219.03 21.17C219.296 20.8466 219.466 20.4551 219.52 20.04H219.86C219.812 20.6193 219.552 21.1606 219.13 21.56C218.719 21.9292 218.182 22.1262 217.63 22.11C217.27 22.118 216.911 22.05 216.579 21.9104C216.246 21.7709 215.947 21.5629 215.7 21.3C215.438 21.0226 215.235 20.6957 215.101 20.3386C214.967 19.9814 214.905 19.6012 214.92 19.22C214.902 18.8041 214.973 18.389 215.128 18.0027C215.283 17.6163 215.519 17.2677 215.82 16.98C216.298 16.513 216.942 16.2542 217.61 16.26C217.866 16.255 218.121 16.2991 218.36 16.39C218.621 16.4986 218.864 16.6471 219.08 16.83V16.83Z" fill="white"/>
<path d="M225.25 16.4H228.12V16.75H227.6C227.514 16.7456 227.43 16.7703 227.36 16.82C227.333 16.8453 227.311 16.8764 227.297 16.911C227.284 16.9456 227.278 16.9828 227.28 17.02V21.35C227.277 21.3902 227.283 21.4306 227.297 21.4685C227.311 21.5063 227.332 21.5409 227.36 21.57C227.449 21.6272 227.554 21.6552 227.66 21.65H228.12V22H225.25V21.65H225.69C225.803 21.6595 225.915 21.6314 226.01 21.57C226.041 21.5427 226.065 21.5086 226.081 21.4705C226.096 21.4323 226.103 21.3911 226.1 21.35V17.06C226.105 16.9758 226.076 16.8932 226.02 16.83C225.942 16.7723 225.847 16.744 225.75 16.75H225.25V16.4Z" fill="white"/>
<path d="M236.26 16.26C236.772 16.2566 237.275 16.3876 237.72 16.64C238.141 16.8946 238.486 17.2571 238.72 17.69C238.975 18.1412 239.106 18.6518 239.1 19.17C239.11 19.5579 239.042 19.9438 238.899 20.3047C238.757 20.6656 238.543 20.9939 238.27 21.27C237.817 21.7158 237.232 22.002 236.602 22.085C235.972 22.168 235.333 22.0434 234.78 21.73C234.367 21.4877 234.022 21.1434 233.78 20.73C233.526 20.2679 233.398 19.7471 233.41 19.22C233.398 18.8328 233.465 18.4472 233.606 18.0864C233.747 17.7256 233.959 17.3969 234.23 17.12C234.489 16.8424 234.804 16.6224 235.154 16.4742C235.503 16.3261 235.88 16.2531 236.26 16.26V16.26ZM236.26 16.63C235.981 16.6235 235.707 16.7077 235.48 16.87C235.233 17.0804 235.052 17.3584 234.96 17.67C234.811 18.1624 234.744 18.6758 234.76 19.19C234.741 19.7062 234.801 20.2223 234.94 20.72C235.035 21.0239 235.22 21.2922 235.47 21.49C235.704 21.6554 235.984 21.7429 236.27 21.74C236.484 21.7423 236.696 21.6903 236.885 21.5889C237.073 21.4875 237.234 21.3399 237.35 21.16C237.672 20.5449 237.814 19.8519 237.76 19.16C237.782 18.6502 237.721 18.1403 237.58 17.65C237.492 17.3478 237.31 17.0816 237.06 16.89C236.833 16.7243 236.561 16.6334 236.28 16.63H236.26Z" fill="white"/>
<path d="M244.45 16.4H246.19L249.19 20.24V17.63C249.212 17.4032 249.143 17.1771 249 17C248.834 16.8374 248.612 16.7444 248.38 16.74V16.4H250.38V16.75C250.151 16.7569 249.934 16.8497 249.77 17.01C249.635 17.1876 249.568 17.4074 249.58 17.63V22H249.15L245.7 17.58V20.64C245.676 20.9183 245.762 21.195 245.94 21.41C246.017 21.4878 246.109 21.5492 246.211 21.5905C246.312 21.6317 246.421 21.652 246.53 21.65H246.63V22H244.37V21.65H244.52C244.628 21.6504 244.734 21.6264 244.831 21.5796C244.928 21.5328 245.013 21.4646 245.08 21.38C245.238 21.1896 245.32 20.9473 245.31 20.7V17.09C245.237 16.985 245.14 16.8992 245.027 16.84C244.914 16.7808 244.788 16.7499 244.66 16.75H244.41L244.45 16.4Z" fill="white"/>
<path d="M255.55 16.4H260.42L260.53 18.4H260.2C260.154 18.054 260.056 17.7169 259.91 17.4C259.801 17.2072 259.637 17.0507 259.44 16.95C259.211 16.8334 258.956 16.7783 258.7 16.79H257.93C257.838 16.7863 257.747 16.8107 257.67 16.86C257.645 16.8869 257.626 16.9185 257.614 16.9529C257.602 16.9872 257.597 17.0237 257.6 17.06V19H257.86C257.987 19.0099 258.114 18.9917 258.234 18.9467C258.353 18.9018 258.461 18.8312 258.55 18.74C258.744 18.5107 258.85 18.2202 258.85 17.92H259.19V20.52H258.85C258.865 20.1918 258.762 19.8692 258.56 19.61C258.46 19.516 258.342 19.4435 258.213 19.3971C258.084 19.3506 257.947 19.3312 257.81 19.34H257.6V21.41C257.595 21.4465 257.599 21.4835 257.612 21.5182C257.624 21.5528 257.644 21.5843 257.67 21.61C257.778 21.6667 257.898 21.6942 258.02 21.69H258.7C258.908 21.697 259.116 21.6616 259.31 21.5859C259.504 21.5103 259.681 21.396 259.83 21.25C260.151 20.8741 260.341 20.4036 260.37 19.91H260.71L260.63 22H255.55V21.65H256.05C256.145 21.6556 256.238 21.6233 256.31 21.56C256.34 21.5303 256.364 21.4944 256.38 21.4547C256.395 21.4151 256.402 21.3726 256.4 21.33V17C256.403 16.9618 256.396 16.9235 256.38 16.8886C256.364 16.8537 256.34 16.8232 256.31 16.8C256.212 16.7475 256.101 16.7232 255.99 16.73H255.55V16.4Z" fill="white"/>
<path d="M269.65 16.83L270 16.33H270.27V18.27H270C269.869 17.7926 269.609 17.3603 269.25 17.02C268.953 16.7552 268.568 16.6093 268.17 16.61C267.873 16.5961 267.581 16.6922 267.35 16.88C267.25 16.9586 267.17 17.0589 267.114 17.1732C267.059 17.2875 267.03 17.4129 267.03 17.54C267.032 17.6865 267.077 17.8292 267.16 17.95C267.262 18.0932 267.4 18.2071 267.56 18.28C267.882 18.4081 268.217 18.4987 268.56 18.55C268.944 18.6223 269.322 18.726 269.69 18.86C269.985 18.9826 270.24 19.1831 270.43 19.44C270.634 19.7725 270.716 20.1653 270.663 20.5517C270.61 20.9381 270.426 21.2943 270.14 21.56C269.696 21.9333 269.13 22.1292 268.55 22.11C267.962 22.1103 267.393 21.8971 266.95 21.51L266.51 22.06H266.23V20H266.56C266.89 21.19 267.56 21.78 268.56 21.78C268.917 21.8076 269.273 21.7046 269.56 21.49C269.668 21.4067 269.756 21.299 269.815 21.1756C269.874 21.0523 269.903 20.9167 269.9 20.78C269.907 20.6012 269.854 20.4252 269.75 20.28C269.629 20.1264 269.466 20.0117 269.28 19.95C268.998 19.863 268.711 19.7929 268.42 19.74C267.963 19.6569 267.519 19.5122 267.1 19.31C266.859 19.1937 266.657 19.0095 266.52 18.78C266.386 18.5462 266.32 18.2794 266.33 18.01C266.323 17.7775 266.364 17.5461 266.452 17.3308C266.54 17.1155 266.672 16.921 266.84 16.76C267.223 16.4317 267.716 16.2602 268.22 16.28C268.745 16.2976 269.249 16.4914 269.65 16.83V16.83Z" fill="white"/>
<path d="M86.44 87.6101C80.7261 84.5627 75.8286 80.1864 72.16 74.8501C70.4358 72.3469 68.9873 69.6647 67.84 66.8501C66.8267 64.2834 65.88 61.4967 65 58.4901L64.49 56.7601L63.37 53.0001C62.846 51.1627 62.2183 49.3564 61.49 47.5901C61.0175 46.459 60.2467 45.4774 59.26 44.7501C58.0707 43.9806 56.6759 43.5901 55.26 43.6301V56.4001C55.2359 57.9889 55.5177 59.5676 56.09 61.0501C56.7525 62.5367 57.9123 63.746 59.37 64.4701V65.4701H33.88V64.4701C35.3515 63.7406 36.5145 62.5102 37.16 61.0001C37.7283 59.5336 38.0133 57.9727 38 56.4001V24.0001C38 21.5001 37.4467 19.6367 36.34 18.4101C35.7744 17.7956 35.0811 17.3125 34.3089 16.9947C33.5367 16.6768 32.7042 16.5319 31.87 16.5701C29.0746 16.7075 26.3806 17.66 24.12 19.3101C21.2759 21.2213 18.8863 23.7338 17.12 26.6701C15.2537 29.6234 14.2653 33.0464 14.27 36.5401C14.1829 39.6831 14.9428 42.7916 16.47 45.5401C17.94 48.0201 19.9 49.2501 22.35 49.2501C23.4941 49.3216 24.624 48.9651 25.52 48.2501C25.8882 47.943 26.1827 47.5571 26.3818 47.1209C26.5809 46.6848 26.6793 46.2094 26.67 45.7301C26.6641 44.8453 26.4038 43.9809 25.92 43.2401C25.6395 42.8319 25.2693 42.4935 24.8376 42.2508C24.406 42.0081 23.9244 41.8676 23.43 41.8401C23.4705 41.306 23.6266 40.787 23.8873 40.3192C24.148 39.8513 24.5072 39.4455 24.94 39.1301C25.8852 38.2676 27.1205 37.7927 28.4 37.8001C29.9237 37.7087 31.423 38.2145 32.58 39.2101C33.0698 39.6479 33.4592 40.1865 33.7216 40.7889C33.9839 41.3912 34.113 42.0432 34.1 42.7001C34.089 43.916 33.705 45.0993 33 46.0901C32.1562 47.2841 30.9961 48.2192 29.65 48.7901C27.9458 49.5337 26.0986 49.8922 24.24 49.8401C19.6941 49.9668 15.1697 49.1708 10.94 47.5001C7.69413 46.2266 4.86328 44.081 2.76 41.3001C0.977157 38.8992 0.00993351 35.9905 0 33.0001C0.0393263 29.8255 1.09026 26.7462 3 24.2101C5.21514 21.2238 8.18752 18.8831 11.61 17.4301C15.8389 15.6298 20.4055 14.7601 25 14.8801H66.76C69.7429 14.7924 72.7079 15.3697 75.44 16.5701C77.6203 17.5308 79.4827 19.0914 80.81 21.0701C81.997 22.8937 82.6261 25.0241 82.62 27.2001C82.6199 29.3492 82.0617 31.4615 81 33.3301C79.7927 35.4069 78.1143 37.171 76.1 38.4801C73.7406 40.0254 71.0893 41.0702 68.31 41.5501C71.7573 43.1352 74.8465 45.4045 77.39 48.2201C79.852 50.91 81.9837 53.8844 83.74 57.0801C85.42 60.1801 87.3167 64.0867 89.43 68.8001C91.2867 72.9599 93.6369 76.8814 96.43 80.4801C98.7218 83.5276 101.471 86.2025 104.58 88.4101C107.34 90.2834 109.8 91.2201 111.96 91.2201C112.873 91.2491 113.779 91.046 114.592 90.6297C115.405 90.2135 116.1 89.5977 116.61 88.84C117.737 87.2467 118.303 84.8667 118.31 81.7001C118.304 80.523 118.059 79.3594 117.59 78.2801C117.036 77.0682 116.13 76.0509 114.99 75.3601C115.319 74.7942 115.847 74.3703 116.47 74.1701C117.195 73.8967 117.965 73.761 118.74 73.7701C119.994 73.783 121.228 74.0805 122.35 74.6401C123.571 75.2089 124.609 76.1055 125.35 77.2301C126.143 78.4768 126.544 79.933 126.5 81.4101C126.531 83.6442 125.68 85.8004 124.13 87.4101C122.386 89.2178 120.217 90.5588 117.82 91.3101C115.134 92.2039 112.321 92.6531 109.49 92.6401C100.137 92.6067 92.4533 90.9301 86.44 87.6101ZM58.32 41.2601C60.82 41.2601 62.7433 39.9734 64.09 37.4001C65.4915 34.544 66.1779 31.3902 66.09 28.2101C66.1226 26.0191 65.7845 23.8383 65.09 21.7601C64.6004 20.1719 63.7518 18.7177 62.61 17.5101C61.8305 16.621 60.7298 16.0779 59.55 16.0001C58.904 16.0195 58.2758 16.2163 57.7343 16.5691C57.1927 16.9219 56.7588 17.417 56.48 18.0001C55.5642 19.8611 55.1538 21.9303 55.29 24.0001V41.3001L58.32 41.2601Z" fill="white"/>
<path d="M103 64.55C99.303 63.1878 96.0227 60.8895 93.4799 57.88C90.8094 54.5991 89.4264 50.4572 89.5899 46.23C89.5899 41.19 90.8766 37.1433 93.4499 34.09C95.9214 31.1065 99.177 28.8726 102.85 27.64C106.449 26.4056 110.225 25.7705 114.03 25.76C117.765 25.7847 121.47 26.4198 125 27.64C128.719 28.8881 132.032 31.1164 134.59 34.09C137.257 37.1367 138.59 41.1833 138.59 46.23C138.74 50.4618 137.315 54.5988 134.59 57.84C131.986 60.8722 128.646 63.1831 124.89 64.55C117.877 67.337 110.063 67.337 103.05 64.55H103ZM118.28 59.46C119.361 55.0568 119.875 50.5335 119.81 46C119.886 41.5553 119.392 37.1191 118.34 32.8C117.347 29.1 115.94 27.25 114.12 27.25C111.96 27.25 110.26 29.13 109.04 32.88C107.729 37.1988 107.108 41.6975 107.2 46.21C107.103 50.7199 107.71 55.2174 109 59.54C110.22 63.31 111.92 65.19 114.08 65.19C115.887 65.19 117.293 63.28 118.3 59.46H118.28Z" fill="white"/>
<path d="M144.32 51.4201H145.32C145.748 53.7606 146.866 55.9197 148.53 57.6201C150.289 59.564 152.39 61.1674 154.73 62.3501C156.599 63.3946 158.682 63.9967 160.82 64.1101C162.98 64.1101 164.07 63.2001 164.07 61.3701C164.024 60.2644 163.701 59.1881 163.13 58.2401C162.373 56.9666 161.349 55.8716 160.13 55.0301L158.91 54.1601C155.643 51.7134 152.977 49.6367 150.91 47.9301C148.867 46.269 147.006 44.3951 145.36 42.3401C143.933 40.7719 143.079 38.7659 142.94 36.6501C142.904 34.4825 143.69 32.3817 145.14 30.7701C146.737 29.0304 148.755 27.7319 151 27.0001C153.683 26.0983 156.5 25.6587 159.33 25.7001C160.723 25.7021 162.112 25.8597 163.47 26.1701C164.84 26.4801 166.34 26.9001 167.98 27.4301C169.31 27.8968 170.689 28.2122 172.09 28.3701C172.338 28.3909 172.588 28.3598 172.824 28.2789C173.06 28.198 173.277 28.069 173.46 27.9001C173.79 27.4544 173.943 26.9021 173.89 26.3501H174.89V38.5201H173.89C173.875 36.4841 173.17 34.5135 171.89 32.9301C170.592 31.259 168.943 29.8935 167.06 28.9301C165.438 28.0177 163.62 27.51 161.76 27.4501C160.766 27.4029 159.785 27.6956 158.98 28.2801C158.633 28.5879 158.362 28.9722 158.188 29.4025C158.015 29.8328 157.943 30.2975 157.98 30.7601C157.968 32.2732 158.422 33.7534 159.28 35.0001C160.169 36.3012 161.267 37.4466 162.53 38.3901C163.8 39.3901 165.53 40.5701 167.82 42.0601C170.233 43.6001 172.133 44.9101 173.52 45.9901C174.912 47.074 176.118 48.3778 177.09 49.8501C178.073 51.3308 178.589 53.0727 178.57 54.8501C178.575 56.7627 177.953 58.6243 176.8 60.1501C175.41 61.8981 173.566 63.2301 171.47 64.0001C168.648 65.0658 165.645 65.5686 162.63 65.4801C161.63 65.4801 160.95 65.4801 160.47 65.4101C159.7 65.4101 158.73 65.2701 157.55 65.1201C156.37 64.9701 155.5 64.8801 154.92 64.8301C152.751 64.461 150.559 64.2438 148.36 64.1801C147.01 64.1801 146.15 64.6201 145.77 65.4801H144.32V51.4201Z" fill="white"/>
<path d="M299.75 65.23C297.749 64.345 296.023 62.9394 294.75 61.16C293.462 59.3679 292.788 57.2068 292.83 55C292.845 52.6956 293.702 50.4761 295.24 48.76C297.23 46.6236 299.738 45.036 302.52 44.15C306.365 42.8769 310.401 42.2781 314.45 42.38C315.75 42.38 316.74 42.38 317.45 42.46V33.46C317.547 31.8491 317.131 30.2489 316.26 28.89C315.956 28.4042 315.537 28.001 315.04 27.7166C314.543 27.4322 313.983 27.2753 313.41 27.26C312.834 27.2799 312.272 27.4385 311.77 27.7223C311.269 28.006 310.843 28.4066 310.53 28.89C309.638 30.2148 309.206 31.7958 309.3 33.39C309.269 34.5596 309.494 35.7218 309.961 36.7948C310.427 37.8677 311.123 38.8253 312 39.6C309.662 40.5577 307.174 41.0959 304.65 41.19C302.683 41.3158 300.737 40.7263 299.17 39.53C298.554 39.0385 298.058 38.4128 297.72 37.7005C297.382 36.9883 297.211 36.2083 297.22 35.42C297.22 32.42 298.71 30.03 301.69 28.32C305.032 26.5234 308.788 25.6403 312.58 25.76C316.194 25.7593 319.776 26.4378 323.14 27.76C326.386 28.9871 329.257 31.0376 331.47 33.71C333.669 36.4669 334.817 39.9152 334.71 43.44V56.44C334.64 58.377 334.945 60.3093 335.61 62.13C335.85 62.7994 336.283 63.3827 336.854 63.8063C337.426 64.2299 338.11 64.4747 338.82 64.51V65.51H325.05C323.253 65.5974 321.483 65.0486 320.05 63.96C318.76 62.8976 317.903 61.4003 317.64 59.75C316.683 61.9205 315.057 63.7284 313 64.91C310.943 66.0644 308.619 66.6608 306.26 66.64C304.013 66.648 301.792 66.1668 299.75 65.23ZM317.41 44.36C316.093 44.4237 314.804 44.7606 313.625 45.3494C312.446 45.9382 311.402 46.7659 310.56 47.78C308.915 49.7399 308.022 52.2214 308.04 54.78C307.938 56.3038 308.412 57.8103 309.37 59C309.748 59.4697 310.226 59.8497 310.769 60.1125C311.312 60.3754 311.907 60.5145 312.51 60.52C313.501 60.5106 314.462 60.1809 315.25 59.58C316.176 58.879 316.918 57.9625 317.41 56.91V44.36Z" fill="white"/>
<path d="M341.7 64.47C343.179 63.7443 344.35 62.5135 345 61C345.571 59.531 345.853 57.9657 345.83 56.39V39C345.876 36.5664 345.779 34.1322 345.54 31.71C345.48 30.5692 345.094 29.4694 344.43 28.54C343.694 27.8334 342.737 27.4024 341.72 27.32V26.32H363.14V35.32C364.601 32.7392 366.531 30.4535 368.83 28.58C370.763 26.8004 373.265 25.7655 375.89 25.66C376.827 25.5991 377.767 25.7469 378.64 26.0928C379.513 26.4386 380.299 26.9739 380.94 27.66C382.095 28.9883 382.712 30.7002 382.67 32.46C382.708 33.3166 382.55 34.1705 382.209 34.9571C381.867 35.7437 381.352 36.4423 380.7 37C379.418 38.0967 377.777 38.6839 376.09 38.65C374.344 38.6828 372.648 38.0663 371.33 36.92C370.654 36.3179 370.123 35.5707 369.776 34.7342C369.43 33.8978 369.278 32.9938 369.33 32.09C369.351 31.5521 369.448 31.02 369.62 30.51C368.421 31.4689 367.343 32.5704 366.41 33.79C365.194 35.2965 364.1 36.8983 363.14 38.58V56.4C363.113 57.9882 363.391 59.5668 363.96 61.05C364.623 62.5366 365.782 63.7459 367.24 64.47V65.47H341.7V64.47Z" fill="white"/>
<g opacity="0.31">
<path opacity="0.31" d="M370.57 35.3599C371.888 36.2851 373.483 36.733 375.09 36.6299C376.584 36.5726 378.007 35.9717 379.09 34.9399C379.597 34.4118 379.986 33.7823 380.233 33.0929C380.479 32.4036 380.577 31.6698 380.52 30.9399C380.506 29.3337 379.921 27.7847 378.87 26.5699C379.641 27.0114 380.298 27.6278 380.788 28.3694C381.278 29.111 381.587 29.9572 381.69 30.8399C381.834 31.7521 381.793 32.6839 381.57 33.5799C381.318 34.4953 380.832 35.3293 380.16 35.9999C379.487 36.6425 378.685 37.1338 377.807 37.4408C376.93 37.7478 375.996 37.8634 375.07 37.7799C374.187 37.7382 373.324 37.4992 372.545 37.0804C371.767 36.6616 371.092 36.0738 370.57 35.3599V35.3599Z" fill="white"/>
</g>
<path opacity="0.31" d="M42.1201 40.57C42.1201 52.02 41.1201 61.3 41.1201 61.3C41.1201 61.3 40.1201 52.02 40.1201 40.57C40.1201 29.12 41.1201 19.84 41.1201 19.84C41.1201 19.84 42.1201 29.12 42.1201 40.57Z" fill="white"/>
<path opacity="0.31" d="M134.86 45.51C134.86 55.11 124.86 60.93 124.86 60.93C124.86 60.93 132.86 54.48 132.86 45.51C132.86 36.54 124.86 30.09 124.86 30.09C124.86 30.09 134.86 35.92 134.86 45.51Z" fill="white"/>
<path opacity="0.31" d="M77.9999 71.54C82.0508 77.3669 86.7994 82.6764 92.1399 87.3499C85.8395 83.6923 80.4225 78.6912 76.2744 72.7023C72.1263 66.7135 69.3489 59.8841 68.1399 52.7C70.6393 59.3615 73.951 65.6893 77.9999 71.54V71.54Z" fill="white"/>
<path opacity="0.31" d="M4.71 31.9999C4.71 42.6599 16.25 47.3099 16.25 47.3099C16.25 47.3099 3.25 43.6799 3.25 31.9999C3.25 20.3199 16.25 16.6899 16.25 16.6899C16.25 16.6899 4.71 21.3799 4.71 31.9999Z" fill="white"/>
<path d="M216.52 51.11C216.364 51.2061 216.187 51.2624 216.005 51.2737C215.822 51.285 215.64 51.2511 215.474 51.1749C215.307 51.0987 215.163 50.9826 215.052 50.837C214.941 50.6913 214.869 50.5206 214.84 50.34C214.84 50.22 213.22 38.67 208.75 32.79C208.603 32.5567 208.55 32.2768 208.599 32.0059C208.649 31.7349 208.799 31.4925 209.019 31.3265C209.239 31.1606 209.513 31.0833 209.787 31.1099C210.062 31.1364 210.316 31.2649 210.5 31.47C215.31 37.81 216.94 49.55 217.01 50.04C217.038 50.2464 217.007 50.4566 216.92 50.646C216.833 50.8354 216.695 50.9963 216.52 51.11V51.11Z" fill="#F8B323"/>
<path d="M202.49 23.79C202.32 23.8924 202.128 23.9509 201.93 23.96C201.75 23.963 201.572 23.9217 201.411 23.8398C201.251 23.7578 201.113 23.6377 201.01 23.49C195.01 14.75 200.88 9.93004 200.94 9.88004C201.136 9.72258 201.379 9.63672 201.63 9.63672C201.881 9.63672 202.125 9.72258 202.32 9.88004C207.02 13.88 204.71 20.48 202.83 23.43C202.746 23.5743 202.629 23.6974 202.49 23.79V23.79ZM201.64 12.31C200.73 13.52 199.45 16.31 201.83 20.66C202.76 18.58 203.84 14.94 201.64 12.31V12.31Z" fill="#F8B323"/>
<path d="M209.14 29.5C208.967 29.6024 208.771 29.6608 208.57 29.67C208.39 29.6713 208.213 29.6292 208.052 29.5474C207.892 29.4656 207.754 29.3464 207.65 29.2C201.6 20.45 207.52 15.64 207.58 15.59C207.775 15.4325 208.019 15.3467 208.27 15.3467C208.521 15.3467 208.764 15.4325 208.96 15.59C213.66 19.59 211.35 26.18 209.47 29.13C209.39 29.2775 209.277 29.4042 209.14 29.5V29.5ZM208.28 18C207.37 19.21 206.09 22 208.47 26.35C209.4 24.29 210.49 20.65 208.28 18Z" fill="#F8B323"/>
<path d="M196.47 17.45C196.365 17.5144 196.25 17.5617 196.13 17.59C195.956 17.6349 195.773 17.6356 195.598 17.592C195.424 17.5483 195.263 17.4617 195.13 17.34C187.71 10.76 192.19 4.14996 192.24 4.07996C192.386 3.86736 192.604 3.71418 192.853 3.64814C193.103 3.58211 193.368 3.60758 193.6 3.71996C199.37 6.41996 198.26 13.55 196.87 16.94C196.789 17.1454 196.65 17.3227 196.47 17.45V17.45ZM193.6 6.21996C192.97 7.71996 192.25 10.95 195.39 14.49C196 12.26 196.49 8.26996 193.6 6.21996Z" fill="#F8B323"/>
<path d="M200.33 25.32C197.17 27.32 190.76 29.53 186.81 24.93C186.651 24.7353 186.564 24.4915 186.564 24.24C186.564 23.9885 186.651 23.7447 186.81 23.55C187.283 22.9876 187.844 22.5048 188.47 22.12C190.38 20.9 194.47 19.46 200.41 23.49C200.562 23.5894 200.686 23.7262 200.77 23.8873C200.854 24.0484 200.895 24.2284 200.89 24.41C200.888 24.5887 200.843 24.7642 200.757 24.9212C200.672 25.0781 200.549 25.2117 200.4 25.31L200.33 25.32ZM189.21 24.24C191.85 26.38 195.48 25.24 197.55 24.33C193.76 22.33 191.17 22.96 189.55 23.96C189.46 24.05 189.33 24.15 189.21 24.24V24.24Z" fill="#F8B323"/>
<path d="M207.24 31.65C204.08 33.65 197.67 35.86 193.72 31.26C193.561 31.0653 193.474 30.8215 193.474 30.57C193.474 30.3184 193.561 30.0747 193.72 29.88C194.192 29.313 194.752 28.8266 195.38 28.44C197.29 27.22 201.38 25.78 207.32 29.81C207.472 29.91 207.595 30.0469 207.679 30.2079C207.763 30.3688 207.805 30.5485 207.8 30.73C207.798 30.9087 207.753 31.0842 207.667 31.2411C207.582 31.3981 207.459 31.5316 207.31 31.63L207.24 31.65ZM196.12 30.56C198.76 32.7 202.39 31.56 204.46 30.65C200.67 28.65 198.08 29.29 196.46 30.28L196.12 30.56Z" fill="#F8B323"/>
<path d="M194.34 19.19L194.18 19.28C190.79 20.68 183.67 21.82 180.94 16.06C180.832 15.8269 180.809 15.5633 180.874 15.3149C180.94 15.0665 181.091 14.8489 181.3 14.7L181.42 14.62C182.1 14.18 188.23 10.62 194.42 17.4C194.521 17.4724 194.606 17.5642 194.67 17.67C194.824 17.9157 194.874 18.2121 194.811 18.4949C194.747 18.7776 194.574 19.0238 194.33 19.18L194.34 19.19ZM183.44 16C185.49 18.84 189.44 18.33 191.72 17.75C188.17 14.65 185 15.35 183.44 16Z" fill="#F8B323"/>
<path d="M189.45 12.1701C189.308 12.2617 189.148 12.3199 188.98 12.3401C182.72 13.0301 180.25 6.02005 179.83 2.22005C179.804 2.03099 179.829 1.83828 179.903 1.66226C179.976 1.48625 180.097 1.33347 180.25 1.22005C180.398 1.10432 180.573 1.02877 180.759 1.00073C180.945 0.972702 181.135 0.993134 181.31 1.06005C191.86 5.17005 189.99 11.3201 189.9 11.5801C189.827 11.8249 189.667 12.0347 189.45 12.1701V12.1701ZM182.38 3.92005C182.99 6.30005 184.48 10.0201 187.9 10.1901C187.89 8.93005 187.21 6.29005 182.38 3.92005Z" fill="#F8B323"/>
<path d="M189.45 12.17C189.308 12.2616 189.148 12.3198 188.98 12.34C182.72 13.03 180.25 6.01997 179.83 2.21997C179.816 2.07749 179.829 1.93355 179.871 1.79639C179.912 1.65922 179.979 1.53151 180.07 1.42054C180.161 1.30958 180.272 1.21753 180.398 1.14966C180.524 1.08178 180.663 1.03942 180.805 1.02497C180.947 1.01053 181.091 1.02429 181.229 1.06547C181.366 1.10665 181.493 1.17444 181.604 1.26498C181.715 1.35552 181.807 1.46702 181.875 1.59313C181.943 1.71924 181.986 1.85749 182 1.99997C182 2.35997 183.07 10.82 188.74 10.2C188.886 10.1834 189.033 10.1964 189.174 10.2381C189.314 10.2798 189.445 10.3494 189.558 10.4428C189.671 10.5361 189.763 10.6513 189.831 10.7814C189.898 10.9115 189.939 11.0539 189.95 11.2C189.96 11.3915 189.919 11.5823 189.832 11.7528C189.744 11.9232 189.612 12.0672 189.45 12.17V12.17Z" fill="#F8B323"/>
<path d="M185.7 23.75C185.533 23.8526 185.341 23.9069 185.145 23.9069C184.949 23.9069 184.757 23.8526 184.59 23.75C183.606 23.0865 182.685 22.3333 181.84 21.5C181.733 21.4048 181.646 21.2895 181.583 21.1606C181.521 21.0316 181.484 20.8917 181.476 20.7487C181.459 20.4599 181.558 20.1762 181.75 19.96C181.942 19.7439 182.212 19.613 182.501 19.5961C182.79 19.5792 183.074 19.6778 183.29 19.87C184.04 20.5903 184.839 21.2585 185.68 21.87C185.925 22.0195 186.103 22.2592 186.174 22.5376C186.245 22.8161 186.204 23.1113 186.06 23.36C185.975 23.5185 185.851 23.6527 185.7 23.75V23.75Z" fill="#F8B323"/>
<path d="M210.57 64.47C212.042 63.7405 213.205 62.5101 213.85 61C214.416 59.5297 214.698 57.9653 214.68 56.39V39C214.726 36.5664 214.629 34.1322 214.39 31.71C214.329 30.5692 213.944 29.4694 213.28 28.54C212.544 27.8334 211.587 27.4024 210.57 27.32V26.32H232V32C233.633 29.9775 235.724 28.3732 238.1 27.32C240.396 26.2764 242.888 25.7343 245.41 25.73C248.056 25.7162 250.664 26.3587 253 27.6C255.17 28.7113 256.923 30.4928 258 32.68C259.868 30.5258 262.195 28.8174 264.81 27.68C267.292 26.553 269.984 25.9634 272.71 25.95C274.956 25.9258 277.181 26.3898 279.23 27.31C281.238 28.1826 282.936 29.6414 284.101 31.4953C285.267 33.3493 285.845 35.5119 285.76 37.7V56.4C285.733 57.9882 286.011 59.5668 286.58 61.05C287.243 62.5366 288.402 63.7459 289.86 64.47V65.47H264.42V64.47C265.892 63.7405 267.055 62.5101 267.7 61C268.271 59.531 268.553 57.9657 268.53 56.39V38.66C268.637 36.8183 268.131 34.9931 267.09 33.47C266.684 32.8923 266.145 32.4208 265.518 32.0953C264.892 31.7698 264.196 31.5999 263.49 31.6C262.552 31.6507 261.635 31.9019 260.802 32.3366C259.969 32.7713 259.239 33.3794 258.66 34.12C259.012 35.2663 259.18 36.461 259.16 37.66V56.4C259.136 57.9888 259.418 59.5675 259.99 61.05C260.653 62.5366 261.812 63.7459 263.27 64.47V65.47H237.75V64.47C239.205 63.7279 240.355 62.5004 241 61C241.566 59.5297 241.848 57.9653 241.83 56.39V38.66C241.94 36.8121 241.419 34.9817 240.35 33.47C239.935 32.8922 239.388 32.4213 238.755 32.0962C238.123 31.771 237.422 31.601 236.71 31.6C235.803 31.6585 234.917 31.9016 234.108 32.3142C233.298 32.7269 232.581 33.3005 232 34V56.4C231.976 57.9888 232.258 59.5675 232.83 61.05C233.493 62.5366 234.652 63.7459 236.11 64.47V65.47H210.57V64.47Z" fill="white"/>
<path opacity="0.31" d="M218.39 45.24C218.39 54.14 217.63 61.35 217.63 61.35C217.63 61.35 216.87 54.14 216.87 45.24C216.87 36.34 217.63 29.14 217.63 29.14C217.63 29.14 218.39 36.35 218.39 45.24Z" fill="white"/>
<g opacity="0.31">
<path opacity="0.31" d="M240.1 30.1399C241.397 30.0988 242.657 30.5693 243.61 31.4499C244.556 32.3727 245.222 33.5446 245.53 34.8299C245.698 35.4586 245.809 36.1013 245.86 36.7499C245.86 37.3799 245.92 38.0399 245.86 38.6599C245.86 39.8799 245.8 41.0999 245.8 42.3199C245.74 44.7699 245.71 47.2199 245.61 49.6699C245.51 52.1199 245.42 54.5799 245.19 57.0499C244.811 54.6115 244.561 52.1547 244.44 49.6899C244.3 47.2299 244.27 44.7599 244.3 42.2999C244.3 41.0599 244.37 39.8299 244.45 38.5999C244.45 37.9799 244.5 37.4099 244.51 36.8199C244.484 36.2407 244.427 35.6632 244.34 35.0899C244.191 33.9691 243.757 32.9052 243.08 31.9999C242.329 31.0574 241.277 30.4009 240.1 30.1399V30.1399Z" fill="white"/>
</g>
<g opacity="0.31">
<path opacity="0.31" d="M266.46 30.14C267.766 30.0974 269.036 30.5676 270 31.45C270.941 32.3768 271.606 33.547 271.92 34.83C272.083 35.4597 272.194 36.1019 272.25 36.75C272.25 37.38 272.25 38.04 272.25 38.66C272.25 39.88 272.19 41.1 272.18 42.32C272.12 44.77 272.09 47.22 272 49.67C271.91 52.12 271.8 54.58 271.57 57.05C271.194 54.6113 270.947 52.1546 270.83 49.69C270.68 47.23 270.65 44.76 270.68 42.3C270.68 41.06 270.76 39.83 270.83 38.6C270.83 37.98 270.89 37.41 270.89 36.82C270.872 36.2406 270.819 35.6628 270.73 35.09C270.567 33.9696 270.127 32.9076 269.45 32C268.694 31.0573 267.639 30.4011 266.46 30.14V30.14Z" fill="white"/>
</g>
<g opacity="0.31">
<path opacity="0.31" d="M302.53 39.35C301.39 38.4072 300.532 37.1685 300.05 35.77C299.784 35.0463 299.648 34.281 299.65 33.51C299.656 32.7169 299.816 31.9325 300.12 31.2C300.429 30.4773 300.866 29.8167 301.41 29.25C301.941 28.7084 302.544 28.2408 303.2 27.86C304.458 27.1229 305.853 26.6499 307.3 26.47C306.109 27.1857 304.96 27.9704 303.86 28.82C302.843 29.6149 302.033 30.6442 301.5 31.82C301.018 32.9879 300.903 34.275 301.17 35.51C301.454 36.8438 301.911 38.1348 302.53 39.35V39.35Z" fill="white"/>
</g>
<g opacity="0.31">
<path opacity="0.31" d="M320.25 37.62C320.56 39.88 320.72 42.14 320.83 44.4C320.94 46.66 320.98 48.93 321 51.19V54.58C320.92 55.68 320.93 56.79 321 57.89C321.029 58.9864 321.159 60.0778 321.39 61.15C321.556 62.2398 322.119 63.2298 322.97 63.93C322.416 63.7405 321.929 63.3929 321.57 62.93C321.21 62.4612 320.914 61.9467 320.69 61.4C320.266 60.3102 319.98 59.1712 319.84 58.01C319.677 56.8642 319.603 55.7073 319.62 54.55V51.17C319.62 48.92 319.62 46.66 319.78 44.41C319.94 42.16 319.94 39.88 320.25 37.62Z" fill="white"/>
</g>
<g opacity="0.31">
<path opacity="0.31" d="M164.11 63.29C164.666 63.1099 165.13 62.7185 165.4 62.2C165.625 61.7024 165.705 61.1511 165.63 60.61C165.552 60.0473 165.404 59.4964 165.19 58.97C165 58.4522 164.737 57.964 164.41 57.52C163.756 56.605 162.939 55.8185 162 55.2L159.11 53C157.21 51.53 155.31 50.05 153.48 48.49C152.57 47.6928 151.702 46.8483 150.88 45.96C150.034 45.0929 149.258 44.16 148.56 43.17C149.47 43.95 150.42 44.68 151.37 45.41C152.32 46.14 153.26 46.91 154.21 47.58C156.21 48.94 158.11 50.37 160.02 51.81L162.85 54.02C163.888 54.7794 164.756 55.7466 165.4 56.86C165.731 57.4173 165.977 58.0205 166.13 58.65C166.288 59.2709 166.365 59.9095 166.36 60.55C166.343 61.2117 166.127 61.8528 165.74 62.39C165.548 62.6477 165.304 62.8613 165.023 63.0166C164.741 63.1718 164.43 63.2651 164.11 63.29V63.29Z" fill="white"/>
</g>
<g opacity="0.31">
<path opacity="0.31" d="M310.44 43.46C308.539 43.9984 306.667 44.6326 304.83 45.36C303.032 46.0425 301.317 46.9283 299.72 48C298.15 49.0212 296.836 50.3898 295.88 52C294.987 53.7203 294.524 55.6315 294.53 57.57C294.245 56.5965 294.117 55.5838 294.15 54.57C294.198 53.5183 294.428 52.483 294.83 51.51C295.689 49.581 297.075 47.9342 298.83 46.76C300.536 45.6088 302.422 44.7504 304.41 44.22C306.371 43.6662 308.403 43.41 310.44 43.46V43.46Z" fill="white"/>
</g>
<path opacity="0.31" d="M349.8 45.24C349.8 54.14 349.04 61.35 349.04 61.35C349.04 61.35 348.29 54.14 348.29 45.24C348.29 36.34 349.04 29.14 349.04 29.14C349.04 29.14 349.8 36.35 349.8 45.24Z" fill="white"/>
<path d="M373 60.3099L373.35 59.8099H373.62V61.7499H373.28C373.156 61.2694 372.896 60.8351 372.53 60.4999C372.23 60.2399 371.847 60.0947 371.45 60.0899C371.153 60.0779 370.862 60.1738 370.63 60.3599C370.531 60.4391 370.452 60.5397 370.399 60.6541C370.345 60.7685 370.318 60.8936 370.32 61.0199C370.318 61.1655 370.36 61.3083 370.44 61.4299C370.542 61.5732 370.68 61.687 370.84 61.7599C371.162 61.8885 371.497 61.9791 371.84 62.0299C372.221 62.1033 372.596 62.207 372.96 62.3399C373.256 62.4599 373.513 62.6609 373.7 62.9199C373.869 63.182 373.956 63.4883 373.95 63.7999C373.96 64.034 373.916 64.2672 373.822 64.482C373.729 64.6967 373.588 64.8875 373.41 65.0399C372.967 65.416 372.401 65.6154 371.82 65.5999C371.231 65.5948 370.663 65.3783 370.22 64.9899L369.78 65.5399H369.5V63.4599H369.83C370.16 64.6499 370.83 65.2399 371.83 65.2399C372.187 65.2676 372.543 65.1645 372.83 64.9499C372.938 64.8667 373.026 64.759 373.085 64.6356C373.144 64.5122 373.173 64.3767 373.17 64.2399C373.176 64.0614 373.123 63.8858 373.02 63.7399C372.896 63.5892 372.734 63.4751 372.55 63.4099C372.44 63.4099 372.15 63.2999 371.69 63.1999C371.235 63.1143 370.791 62.9733 370.37 62.7799C370.128 62.6599 369.927 62.4721 369.79 62.2395C369.653 62.0069 369.587 61.7395 369.6 61.4699C369.591 61.2378 369.633 61.0065 369.722 60.7923C369.812 60.578 369.948 60.3861 370.12 60.2299C370.305 60.0618 370.521 59.9319 370.756 59.8478C370.991 59.7637 371.241 59.7271 371.49 59.7399C372.045 59.7449 372.58 59.9469 373 60.3099V60.3099Z" fill="white"/>
<path d="M375.41 64.3C375.582 64.3 375.747 64.3685 375.869 64.4904C375.991 64.6123 376.06 64.7777 376.06 64.9501C376.06 65.1224 375.991 65.2878 375.869 65.4097C375.747 65.5316 375.582 65.6 375.41 65.6C375.237 65.6 375.072 65.5316 374.95 65.4097C374.828 65.2878 374.76 65.1224 374.76 64.9501C374.76 64.7777 374.828 64.6123 374.95 64.4904C375.072 64.3685 375.237 64.3 375.41 64.3V64.3Z" fill="white"/>
<path d="M379.64 59.74L381.74 64.74C381.78 64.8496 381.85 64.9463 381.94 65.02C382.023 65.0756 382.121 65.1036 382.22 65.1H382.42V65.45H379.8V65.1H380C380.14 65.1088 380.279 65.0884 380.41 65.04C380.442 65.0219 380.467 64.9956 380.485 64.9638C380.503 64.9321 380.511 64.8962 380.51 64.86C380.521 64.7972 380.521 64.7328 380.51 64.67L380.08 63.67H378L377.8 64.14C377.735 64.2786 377.694 64.4275 377.68 64.58C377.679 64.6558 377.695 64.7308 377.726 64.7999C377.757 64.869 377.803 64.9305 377.86 64.98C378.004 65.0875 378.181 65.1406 378.36 65.13H378.53V65.48H376.41V65.13H376.53C376.662 65.134 376.791 65.0875 376.89 65C377.039 64.8763 377.156 64.7185 377.23 64.54L379.23 59.74H379.64ZM379 61.16L378.11 63.29H379.89L379 61.16Z" fill="white"/>
<path d="M383.45 64.3C383.622 64.3 383.788 64.3685 383.909 64.4904C384.031 64.6123 384.1 64.7777 384.1 64.9501C384.1 65.1224 384.031 65.2878 383.909 65.4097C383.788 65.5316 383.622 65.6 383.45 65.6C383.277 65.6 383.112 65.5316 382.99 65.4097C382.868 65.2878 382.8 65.1224 382.8 64.9501C382.8 64.7777 382.868 64.6123 382.99 64.4904C383.112 64.3685 383.277 64.3 383.45 64.3V64.3Z" fill="white"/>
<path d="M388.36 60.3099L388.71 59.8099H389V61.7499H388.65C388.527 61.2694 388.266 60.8351 387.9 60.4999C387.602 60.2368 387.218 60.0911 386.82 60.0899C386.523 60.0779 386.232 60.1738 386 60.3599C385.902 60.4391 385.822 60.5397 385.769 60.6541C385.715 60.7685 385.688 60.8936 385.69 61.0199C385.688 61.1655 385.73 61.3083 385.81 61.4299C385.912 61.5732 386.05 61.687 386.21 61.7599C386.532 61.8885 386.867 61.9791 387.21 62.0299C387.591 62.1033 387.966 62.207 388.33 62.3399C388.626 62.4599 388.883 62.6609 389.07 62.9199C389.243 63.1801 389.33 63.4877 389.32 63.7999C389.33 64.034 389.286 64.2672 389.193 64.482C389.099 64.6967 388.958 64.8875 388.78 65.0399C388.338 65.4177 387.771 65.6173 387.19 65.5999C386.601 65.5948 386.033 65.3783 385.59 64.9899L385.15 65.5399H384.87V63.4599H385.2C385.53 64.6499 386.2 65.2399 387.2 65.2399C387.558 65.2676 387.913 65.1645 388.2 64.9499C388.309 64.8667 388.396 64.759 388.455 64.6356C388.514 64.5122 388.543 64.3767 388.54 64.2399C388.546 64.0614 388.493 63.8858 388.39 63.7399C388.269 63.5864 388.106 63.4716 387.92 63.4099C387.81 63.4099 387.52 63.2999 387.06 63.1999C386.605 63.1143 386.161 62.9733 385.74 62.7799C385.502 62.6544 385.302 62.4681 385.16 62.2399C385.031 62.0043 384.965 61.7388 384.97 61.4699C384.961 61.2378 385.003 61.0065 385.093 60.7923C385.182 60.578 385.318 60.3861 385.49 60.2299C385.675 60.0618 385.891 59.9319 386.126 59.8478C386.361 59.7637 386.611 59.7271 386.86 59.7399C387.412 59.7455 387.944 59.9476 388.36 60.3099V60.3099Z" fill="white"/>
</svg>
