<svg width="41" height="41" viewBox="0 0 41 41" fill="none" xmlns="http://www.w3.org/2000/svg">
<path d="M20.2731 9.36965C17.9056 9.36586 15.6212 10.2429 13.8645 11.8301C12.1077 13.4173 11.0042 15.6013 10.7686 17.9571C10.7376 18.264 10.7226 18.5722 10.7237 18.8806C10.7226 20.8779 11.3584 22.8234 12.5387 24.4346L11.3522 27.9555L15.0206 26.7819C16.4578 27.7259 18.1231 28.2646 19.8409 28.3413C21.5588 28.4179 23.2654 28.0296 24.781 27.2174C26.2966 26.4051 27.5649 25.1989 28.4522 23.726C29.3395 22.2531 29.813 20.5681 29.8226 18.8486C29.8226 18.5984 29.8226 18.3547 29.7905 18.1046C29.5908 15.7195 28.501 13.4969 26.7376 11.8785C24.9743 10.2602 22.6666 9.36453 20.2731 9.36965V9.36965ZM25.8463 22.7543C25.6439 23.0938 25.3717 23.3865 25.0478 23.6132C24.7239 23.8398 24.3556 23.9952 23.9672 24.069C23.4542 24.1139 23.4542 24.4859 20.6259 23.3828C17.7976 22.2797 16.0403 19.3873 15.8672 19.2398C15.4292 18.6594 15.093 18.0088 14.8731 17.3158C14.7915 17.0018 14.7527 16.6782 14.7577 16.3538C14.75 15.9222 14.8327 15.4938 15.0006 15.0962C15.1685 14.6985 15.4178 14.3404 15.7325 14.045C15.8263 13.9395 15.9406 13.8543 16.0686 13.7947C16.1966 13.7352 16.3354 13.7025 16.4765 13.6987C16.6624 13.6987 16.8484 13.6987 17.0088 13.6987C17.1691 13.6987 17.4064 13.6025 17.6501 14.1604C17.8938 14.7184 18.4453 16.0844 18.5159 16.2127C18.5575 16.286 18.5794 16.3689 18.5794 16.4532C18.5794 16.5375 18.5575 16.6204 18.5159 16.6937C18.4662 16.8068 18.4084 16.9161 18.3427 17.0208L18.2401 17.1554C18.099 17.3158 17.9451 17.5146 17.8233 17.6429C17.7772 17.671 17.7373 17.7081 17.7059 17.7519C17.6744 17.7957 17.652 17.8454 17.6401 17.898C17.6281 17.9506 17.6268 18.0051 17.6363 18.0582C17.6457 18.1113 17.6657 18.162 17.695 18.2072C18.112 18.9234 18.6353 19.5721 19.247 20.1312C19.9063 20.7171 20.6641 21.1818 21.4853 21.5037C21.7675 21.6448 21.9278 21.6191 22.0881 21.4331C22.2485 21.2472 22.7872 20.6315 22.9732 20.3557C23.1592 20.0799 23.3451 20.1184 23.6145 20.2146C23.8839 20.3108 25.2371 20.9778 25.5385 21.1189C25.8399 21.26 26.0067 21.3241 26.0708 21.4331C26.1417 21.8672 26.086 22.3125 25.9105 22.7158" fill="#0D2F4C"/>
<path d="M20.0032 1.02886e-06C16.047 1.02886e-06 12.1795 1.17317 8.89003 3.37115C5.60052 5.56913 3.03666 8.69321 1.52266 12.3483C0.00866717 16.0034 -0.387463 20.0254 0.384365 23.9056C1.15619 27.7859 3.06131 31.3501 5.85881 34.1476C8.65631 36.9451 12.2205 38.8502 16.1008 39.6221C19.981 40.3939 24.003 39.9978 27.6581 38.4838C31.3132 36.9698 34.4373 34.4059 36.6353 31.1164C38.8333 27.8269 40.0064 23.9595 40.0064 20.0032C40.0073 17.3761 39.4904 14.7746 38.4855 12.3473C37.4805 9.92004 36.0071 7.71456 34.1495 5.85693C32.2919 3.99929 30.0864 2.5259 27.6591 1.52094C25.2318 0.515982 22.6303 -0.000841664 20.0032 1.02886e-06V1.02886e-06ZM20.2726 30.1427C18.3423 30.1432 16.4439 29.6509 14.7571 28.7125L8.46562 30.7135L10.5179 24.6721C9.45144 22.917 8.88792 20.9025 8.8889 18.8488C8.8889 18.6821 8.8889 18.5153 8.8889 18.355C9.03316 15.4251 10.3054 12.6647 12.4391 10.6518C14.5728 8.63883 17.4026 7.52946 20.3359 7.55598C23.2691 7.58251 26.0784 8.74286 28.1754 10.7941C30.2724 12.8453 31.4945 15.6282 31.5857 18.5602C31.5857 18.6564 31.5857 18.7526 31.5857 18.8488C31.5806 21.8459 30.3864 24.7185 28.2654 26.836C26.1443 28.9534 23.2697 30.1427 20.2726 30.1427" fill="#0D2F4C"/>
</svg>
